<svg xmlns="http://www.w3.org/2000/svg" viewBox="0 0 192 48" fill="none">
  <!-- Squircle mark -->
  <path d="M16.5 0h15c7.5 0 11.6.4 13.9 2.6S48 9 48 16.5v15c0 7.5-.4 11.6-2.6 13.9S39 48 31.5 48h-15C9 48 4.9 47.6 2.6 45.4S0 39 0 31.5v-15C0 9 .4 4.9 2.6 2.6S9 0 16.5 0z" fill="#ff915c"/>
  <!-- R inside squircle — Inter Black 900, centered -->
  <g fill="white" transform="translate(11 5)">
    <path d="M9.28 38L1.78 38L1.78 10.35L13.69 10.35Q16.77 10.35 19.08 11.48Q21.39 12.60 22.68 14.70Q23.97 16.81 23.97 19.74L23.97 19.74Q23.97 22.71 22.66 24.75Q21.34 26.79 18.96 27.83Q16.59 28.87 13.43 28.87L13.43 28.87L6.31 28.87L6.31 23.04L11.91 23.04Q13.25 23.04 14.19 22.71Q15.14 22.38 15.64 21.65Q16.14 20.93 16.14 19.74L16.14 19.74Q16.14 18.55 15.64 17.81Q15.14 17.07 14.19 16.72Q13.25 16.37 11.91 16.37L11.91 16.37L9.28 16.37L9.28 38ZM24.90 38L16.74 38L9.98 25.31L17.96 25.31L24.90 38Z"/>
  </g>
  <!-- REFINE wordmark — Inter Black 900, outlined to paths -->
  <g fill="white" transform="translate(62 9)">
    <path d="M7.32 30L1.41 30L1.41 8.17L10.81 8.17Q13.24 8.17 15.07 9.06Q16.89 9.95 17.91 11.61Q18.93 13.27 18.93 15.59L18.93 15.59Q18.93 17.93 17.89 19.54Q16.85 21.15 14.97 21.97Q13.10 22.79 10.61 22.79L10.61 22.79L4.98 22.79L4.98 18.19L9.40 18.19Q10.46 18.19 11.21 17.93Q11.95 17.67 12.35 17.09Q12.74 16.52 12.74 15.59L12.74 15.59Q12.74 14.65 12.35 14.06Q11.95 13.48 11.21 13.20Q10.46 12.92 9.40 12.92L9.40 12.92L7.32 12.92L7.32 30ZM19.66 30L13.21 30L7.88 19.98L14.18 19.98L19.66 30ZM37.12 30L21.45 30L21.45 8.17L37.18 8.17L37.18 12.95L27.36 12.95L27.36 16.64L36.36 16.64L36.36 21.30L27.36 21.30L27.36 25.22L37.12 25.22L37.12 30ZM45.75 30L39.83 30L39.83 8.17L55.18 8.17L55.18 12.95L45.75 12.95L45.75 17.87L54.24 17.87L54.24 22.53L45.75 22.53L45.75 30ZM57.35 8.17L63.27 8.17L63.27 30L57.35 30L57.35 8.17ZM72.17 30L66.08 30L66.08 8.17L72.52 8.17L77.72 16.74Q78.40 17.86 78.98 18.97Q79.57 20.08 80.12 21.42Q80.67 22.76 81.24 24.55L81.24 24.55L80.73 24.55Q80.65 23.36 80.54 21.80Q80.43 20.24 80.35 18.73Q80.26 17.21 80.26 16.17L80.26 16.17L80.26 8.17L86.35 8.17L86.35 30L79.91 30L75.06 22.03Q74.24 20.67 73.62 19.49Q72.99 18.31 72.41 16.99Q71.84 15.67 71.09 13.95L71.09 13.95L71.70 13.95Q71.82 15.48 71.93 17.01Q72.04 18.53 72.11 19.83Q72.17 21.14 72.17 22.03L72.17 22.03L72.17 30ZM104.84 30L89.17 30L89.17 8.17L104.90 8.17L104.90 12.95L95.08 12.95L95.08 16.64L104.08 16.64L104.08 21.30L95.08 21.30L95.08 25.22L104.84 25.22L104.84 30Z"/>
  </g>
</svg>
