<svg xmlns="http://www.w3.org/2000/svg" viewBox="0 0 48 48" fill="none">
  <path d="M16.5 0h15c7.5 0 11.6.4 13.9 2.6S48 9 48 16.5v15c0 7.5-.4 11.6-2.6 13.9S39 48 31.5 48h-15C9 48 4.9 47.6 2.6 45.4S0 39 0 31.5v-15C0 9 .4 4.9 2.6 2.6S9 0 16.5 0z" fill="#ff915c"/>
  <g fill="white" transform="translate(11 5)">
    <path d="M9.28 38L1.78 38L1.78 10.35L13.69 10.35Q16.77 10.35 19.08 11.48Q21.39 12.60 22.68 14.70Q23.97 16.81 23.97 19.74L23.97 19.74Q23.97 22.71 22.66 24.75Q21.34 26.79 18.96 27.83Q16.59 28.87 13.43 28.87L13.43 28.87L6.31 28.87L6.31 23.04L11.91 23.04Q13.25 23.04 14.19 22.71Q15.14 22.38 15.64 21.65Q16.14 20.93 16.14 19.74L16.14 19.74Q16.14 18.55 15.64 17.81Q15.14 17.07 14.19 16.72Q13.25 16.37 11.91 16.37L11.91 16.37L9.28 16.37L9.28 38ZM24.90 38L16.74 38L9.98 25.31L17.96 25.31L24.90 38Z"/>
  </g>
</svg>
